<?xml version="1.0" encoding="UTF-8" standalone="no"?>
<!DOCTYPE svg PUBLIC "-//W3C//DTD SVG 1.1//EN"
 "http://www.w3.org/Graphics/SVG/1.1/DTD/svg11.dtd">
<!-- Generated by graphviz version 2.47.0 (20210316.0004)
 -->
<!-- Title: dependencies Pages: 1 -->
<svg width="504pt" height="349pt"
 viewBox="0.00 0.00 504.00 349.00" xmlns="http://www.w3.org/2000/svg" xmlns:xlink="http://www.w3.org/1999/xlink">
<g id="graph0" class="graph" transform="scale(1 1) rotate(0) translate(4 345)">
<title>dependencies</title>
<polygon fill="white" stroke="transparent" points="-4,4 -4,-345 500,-345 500,4 -4,4"/>
<text text-anchor="start" x="227.01" y="-42.4" font-family="Times-12" font-weight="bold" font-size="14.00">Legend</text>
<polygon fill="#ffffb3" stroke="transparent" points="14,-10 14,-30 34,-30 34,-10 14,-10"/>
<text text-anchor="start" x="37.63" y="-15.4" font-family="Times-12" font-size="14.00"> &#160;Declarations</text>
<polygon fill="#8dd3c7" stroke="transparent" points="127,-10 127,-30 147,-30 147,-10 127,-10"/>
<text text-anchor="start" x="150.73" y="-15.4" font-family="Times-12" font-size="14.00"> &#160;Module</text>
<polygon fill="#80b1d3" stroke="transparent" points="213,-10 213,-30 233,-30 233,-10 213,-10"/>
<text text-anchor="start" x="236.78" y="-15.4" font-family="Times-12" font-size="14.00"> &#160;Bootstrap</text>
<polygon fill="#fdb462" stroke="transparent" points="310,-10 310,-30 330,-30 330,-10 310,-10"/>
<text text-anchor="start" x="333.67" y="-15.4" font-family="Times-12" font-size="14.00"> &#160;Providers</text>
<polygon fill="#fb8072" stroke="transparent" points="406,-10 406,-30 426,-30 426,-10 406,-10"/>
<text text-anchor="start" x="429.73" y="-15.4" font-family="Times-12" font-size="14.00"> &#160;Exports</text>
<g id="clust1" class="cluster">
<title>cluster_NgxLaydateModule</title>
<polygon fill="none" stroke="black" stroke-dasharray="1,5" points="57,-70 57,-333 439,-333 439,-70 57,-70"/>
</g>
<g id="clust5" class="cluster">
<title>cluster_NgxLaydateModule_exports</title>
<polygon fill="none" stroke="black" points="170,-273 170,-325 326,-325 326,-273 170,-273"/>
</g>
<g id="clust2" class="cluster">
<title>cluster_NgxLaydateModule_declarations</title>
<polygon fill="none" stroke="black" points="171,-143 171,-195 325,-195 325,-143 171,-143"/>
</g>
<g id="clust3" class="cluster">
<title>cluster_NgxLaydateModule_NgxLaydateDirective_providers</title>
<polygon fill="none" stroke="black" points="65,-78 65,-130 431,-130 431,-78 65,-78"/>
</g>
<!-- NgxLaydateDirective -->
<g id="node1" class="node">
<title>NgxLaydateDirective</title>
<polygon fill="#ffffb3" stroke="black" points="316.78,-187 179.22,-187 179.22,-151 316.78,-151 316.78,-187"/>
<text text-anchor="middle" x="248" y="-164.8" font-family="Times,serif" font-size="14.00">NgxLaydateDirective</text>
</g>
<!-- NgxLaydateModule -->
<g id="node2" class="node">
<title>NgxLaydateModule</title>
<polygon fill="#8dd3c7" stroke="black" points="312.24,-252 309.24,-256 288.24,-256 285.24,-252 183.76,-252 183.76,-216 312.24,-216 312.24,-252"/>
<text text-anchor="middle" x="248" y="-229.8" font-family="Times,serif" font-size="14.00">NgxLaydateModule</text>
</g>
<!-- NgxLaydateDirective&#45;&gt;NgxLaydateModule -->
<g id="edge1" class="edge">
<title>NgxLaydateDirective&#45;&gt;NgxLaydateModule</title>
<path fill="none" stroke="black" d="M248,-187.11C248,-187.11 248,-205.99 248,-205.99"/>
<polygon fill="black" stroke="black" points="244.5,-205.99 248,-215.99 251.5,-205.99 244.5,-205.99"/>
</g>
<!-- NgxLaydateDirective  -->
<g id="node4" class="node">
<title>NgxLaydateDirective </title>
<polygon fill="#fb8072" stroke="black" points="318.28,-317 177.72,-317 177.72,-281 318.28,-281 318.28,-317"/>
<text text-anchor="middle" x="248" y="-294.8" font-family="Times,serif" font-size="14.00">NgxLaydateDirective </text>
</g>
<!-- NgxLaydateModule&#45;&gt;NgxLaydateDirective  -->
<g id="edge3" class="edge">
<title>NgxLaydateModule&#45;&gt;NgxLaydateDirective </title>
<path fill="none" stroke="black" stroke-dasharray="5,2" d="M248,-252.11C248,-252.11 248,-270.99 248,-270.99"/>
<polygon fill="black" stroke="black" points="244.5,-270.99 248,-280.99 251.5,-270.99 244.5,-270.99"/>
</g>
<!-- NGX_LAYDATE_VALUE_ACCESSOR -->
<g id="node3" class="node">
<title>NGX_LAYDATE_VALUE_ACCESSOR</title>
<ellipse fill="#fdb462" stroke="black" cx="248" cy="-104" rx="174.76" ry="18"/>
<text text-anchor="middle" x="248" y="-99.8" font-family="Times,serif" font-size="14.00">NGX_LAYDATE_VALUE_ACCESSOR</text>
</g>
<!-- NGX_LAYDATE_VALUE_ACCESSOR&#45;&gt;NgxLaydateDirective -->
<g id="edge2" class="edge">
<title>NGX_LAYDATE_VALUE_ACCESSOR&#45;&gt;NgxLaydateDirective</title>
<path fill="none" stroke="black" d="M248,-122.11C248,-122.11 248,-140.99 248,-140.99"/>
<polygon fill="black" stroke="black" points="244.5,-140.99 248,-150.99 251.5,-140.99 244.5,-140.99"/>
</g>
</g>
</svg>
